<svg xmlns="http://www.w3.org/2000/svg" viewBox="0 0 100 100">
  <!-- Top Soil Line -->
  <rect x="15" y="10" width="70" height="6" fill="#000000" />
  
  <!-- Central Droplet (Outline) -->
  <path d="M50 32 C50 32 28 60 28 72 A22 22 0 1 0 72 72 C72 60 50 32 50 32 Z" fill="none" stroke="#000000" stroke-width="5" stroke-linejoin="round" />
  
  <!-- Droplet Highlight -->
  <path d="M38 72 A 10 10 0 0 1 42 64" fill="none" stroke="#000000" stroke-width="4" stroke-linecap="round" />

  <!-- Particles - Left -->
  <polygon points="25,30 30,40 20,40" fill="#000000" />
  <circle cx="40" cy="32" r="4" fill="#000000" />
  <polygon points="32,45 38,52 26,52" fill="#000000" transform="rotate(180 32 48)" />
  <circle cx="22" cy="55" r="4" fill="#000000" />
  <polygon points="20,68 28,72 20,76" fill="#000000" />

  <!-- Particles - Right -->
  <circle cx="62" cy="32" r="4" fill="#000000" />
  <polygon points="75,30 80,40 70,40" fill="#000000" />
  <polygon points="72,50 78,55 72,60" fill="#000000" />
  <circle cx="78" cy="58" r="4" fill="#000000" />
  <polygon points="72,72 80,72 76,82" fill="#000000" />
</svg>